<?xml version="1.0" encoding="utf-8"?>
<!-- Generator: Adobe Illustrator 23.0.3, SVG Export Plug-In . SVG Version: 6.00 Build 0)  -->
<svg version="1.1" id="Layer_1" xmlns="http://www.w3.org/2000/svg" xmlns:xlink="http://www.w3.org/1999/xlink" x="0px" y="0px"
	 width="16px" height="16px" viewBox="0 0 16 16" style="enable-background:new 0 0 16 16;" xml:space="preserve">
<polygon points="2,2 2,14 4,14 4,16 0,16 0,0 4,0 4,2 "/>
<polygon points="16,0 16,16 12,16 12,14 14,14 14,2 12,2 12,0 "/>
<rect x="4" y="4" transform="matrix(6.123234e-17 -1 1 6.123234e-17 4.547474e-13 10)" width="2" height="2"/>
<rect x="7" y="4" transform="matrix(6.123234e-17 -1 1 6.123234e-17 3 13)" width="2" height="2"/>
<rect x="10" y="4" transform="matrix(6.123234e-17 -1 1 6.123234e-17 6 16)" width="2" height="2"/>
<rect x="4" y="7" transform="matrix(6.123234e-17 -1 1 6.123234e-17 -3 13)" width="2" height="2"/>
<rect x="7" y="7" transform="matrix(6.123234e-17 -1 1 6.123234e-17 0 16)" width="2" height="2"/>
<rect x="10" y="7" transform="matrix(6.123234e-17 -1 1 6.123234e-17 3 19)" width="2" height="2"/>
<rect x="4" y="10" transform="matrix(6.123234e-17 -1 1 6.123234e-17 -6 16)" width="2" height="2"/>
<rect x="7" y="10" transform="matrix(6.123234e-17 -1 1 6.123234e-17 -3 19)" width="2" height="2"/>
<rect x="10" y="10" transform="matrix(6.123234e-17 -1 1 6.123234e-17 0 22)" width="2" height="2"/>
</svg>
