<?xml version="1.0" encoding="utf-8"?>
<!-- Generator: Adobe Illustrator 23.0.6, SVG Export Plug-In . SVG Version: 6.00 Build 0)  -->
<svg version="1.1" id="Layer_1" xmlns="http://www.w3.org/2000/svg" xmlns:xlink="http://www.w3.org/1999/xlink" x="0px" y="0px"
	 width="16px" height="16px" viewBox="0 0 16 16" style="enable-background:new 0 0 16 16;" xml:space="preserve">
<path d="M12.03,11.519L10.548,13L8,10.511L5.452,13L3.97,11.519L6.578,8.97L4.03,6.481L5.511,5L8,7.548L10.548,5l1.481,1.481
	L9.481,8.97L12.03,11.519z"/>
<path d="M0,0v16h16V0H0z M12,1h1v1h-1V1z M1,1h7v1H1V1z M15,15H1V3h14V15z M15,2h-1V1h1V2z"/>
</svg>
