<?xml version="1.0" encoding="utf-8"?>
<!-- Generator: Adobe Illustrator 23.1.0, SVG Export Plug-In . SVG Version: 6.00 Build 0)  -->
<svg version="1.1" id="Layer_1" xmlns="http://www.w3.org/2000/svg" xmlns:xlink="http://www.w3.org/1999/xlink" x="0px" y="0px"
	 width="24px" height="24px" viewBox="0 0 24 24" style="enable-background:new 0 0 24 24;" xml:space="preserve">
<g>
	<path d="M21,8V5.9L15.1,0H3v8H0v12h3v4h18v-4h3V8H21z M5,2h10v4h4v2H5V2z M13,10v8h-2v-8H13z M5,16l2.75-4H5v-2h5v2l-2.75,4H10v2H5
		V16z M19,22H5v-2h14V22z M20,16h-4v2h-2v-8h6V16z"/>
</g>
<rect x="16" y="12" width="2" height="2"/>
</svg>
