<?xml version="1.0" encoding="utf-8"?>
<!-- Generator: Adobe Illustrator 23.1.0, SVG Export Plug-In . SVG Version: 6.00 Build 0)  -->
<svg version="1.1" id="Layer_1" xmlns="http://www.w3.org/2000/svg" xmlns:xlink="http://www.w3.org/1999/xlink" x="0px" y="0px"
	 width="16px" height="16px" viewBox="0 0 16 16" style="enable-background:new 0 0 16 16;" xml:space="preserve">
<path d="M14,7V4l-4-4H1v7H0v6h1v3h13v-3h1V7H14z M2,1h8v3h3v3H2V1z M12,8v3h-2v1H9V8H12z M8,8v4H7V8H8z M6,11v1H3v-1l1.75-2H3V8h3v1
	l-1.75,2H6z M13,15H2v-2h11V15z"/>
<rect x="10" y="9" width="1" height="1"/>
</svg>
