<?xml version="1.0" encoding="utf-8"?>
<!-- Generator: Adobe Illustrator 23.0.6, SVG Export Plug-In . SVG Version: 6.00 Build 0)  -->
<svg version="1.1" id="Layer_1" xmlns="http://www.w3.org/2000/svg" xmlns:xlink="http://www.w3.org/1999/xlink" x="0px" y="0px"
	 width="16px" height="16px" viewBox="0 0 16 16" style="enable-background:new 0 0 16 16;" xml:space="preserve">
<path d="M16,8c0,4.42-3.58,8-8,8s-8-3.58-8-8s3.58-8,8-8c1.33,0,2.59,0.33,3.69,0.9l-1.13,1.13C9.77,1.69,8.91,1.5,8,1.5
	C4.42,1.5,1.5,4.42,1.5,8s2.92,6.5,6.5,6.5s6.5-2.92,6.5-6.5c0-0.91-0.19-1.77-0.53-2.56l1.13-1.13C15.67,5.41,16,6.67,16,8z"/>
<path d="M12.8,8c0,2.65-2.15,4.8-4.8,4.8S3.2,10.65,3.2,8S5.35,3.2,8,3.2c0.7,0,1.36,0.15,1.96,0.43L8.79,4.8
	C8.54,4.73,8.27,4.7,8,4.7C6.18,4.7,4.7,6.18,4.7,8c0,0.27,0.03,0.54,0.1,0.79C5.15,10.23,6.45,11.3,8,11.3c1.82,0,3.3-1.48,3.3-3.3
	c0-0.27-0.03-0.54-0.1-0.79l1.17-1.17C12.65,6.64,12.8,7.3,12.8,8z"/>
<path d="M16,2l-3,3h-1L9.51,7.49C9.57,7.65,9.6,7.82,9.6,8c0,0.88-0.72,1.6-1.6,1.6S6.4,8.88,6.4,8S7.12,6.4,8,6.4
	c0.18,0,0.35,0.03,0.51,0.09L11,4V3l3-3v2H16z"/>
</svg>
