<?xml version="1.0" encoding="utf-8"?>
<!-- Generator: Adobe Illustrator 22.1.0, SVG Export Plug-In . SVG Version: 6.00 Build 0)  -->
<svg version="1.1" id="Layer_1" xmlns="http://www.w3.org/2000/svg" xmlns:xlink="http://www.w3.org/1999/xlink" x="0px" y="0px"
	 width="16px" height="16px" viewBox="0 0 16 16" style="enable-background:new 0 0 16 16;" xml:space="preserve">
<path d="M11.5,0C9.01,0,7,2.01,7,4.5c0,0.45,0.07,0.89,0.19,1.31L0,13v3h3v-2h2v-2h2v-2h2l1.19-1.19C10.61,8.93,11.05,9,11.5,9
	C13.99,9,16,6.99,16,4.5S13.99,0,11.5,0z M12.5,5c-0.24,0-0.47-0.06-0.67-0.17c-0.29-0.13-0.53-0.37-0.66-0.66
	C11.06,3.97,11,3.74,11,3.5C11,2.67,11.67,2,12.5,2S14,2.67,14,3.5S13.33,5,12.5,5z"/>
</svg>
