<?xml version="1.0" encoding="utf-8"?>
<!-- Generator: Adobe Illustrator 23.0.3, SVG Export Plug-In . SVG Version: 6.00 Build 0)  -->
<svg version="1.1" id="Layer_1" xmlns="http://www.w3.org/2000/svg" xmlns:xlink="http://www.w3.org/1999/xlink" x="0px" y="0px"
	 width="16px" height="16px" viewBox="0 0 16 16" style="enable-background:new 0 0 16 16;" xml:space="preserve">
<g>
	<g>
		<path d="M16,5.9c0,0.88-0.72,1.6-1.6,1.6c-0.16,0-0.32-0.02-0.46-0.08L11.66,9.7c0.05,0.15,0.07,0.3,0.07,0.47
			c0,0.88-0.71,1.6-1.6,1.6c-0.88,0-1.6-0.72-1.6-1.6c0-0.17,0.02-0.32,0.08-0.47L6.33,7.42C6.19,7.48,6.03,7.5,5.87,7.5
			c-0.16,0-0.32-0.02-0.46-0.08L3.12,9.71c0.06,0.14,0.08,0.3,0.08,0.46c0,0.88-0.72,1.6-1.6,1.6S0,11.05,0,10.17
			c0-0.89,0.72-1.6,1.6-1.6c0.16,0,0.32,0.02,0.47,0.07l2.27-2.27C4.29,6.22,4.27,6.06,4.27,5.9c0-0.88,0.71-1.6,1.6-1.6
			c0.88,0,1.6,0.72,1.6,1.6c0,0.16-0.03,0.32-0.08,0.47l2.27,2.27c0.15-0.05,0.3-0.07,0.47-0.07s0.32,0.02,0.47,0.07l2.28-2.28
			c-0.06-0.14-0.08-0.3-0.08-0.46c0-0.88,0.72-1.6,1.6-1.6S16,5.02,16,5.9z"/>
	</g>
</g>
</svg>
