<?xml version="1.0" encoding="utf-8"?>
<!-- Generator: Adobe Illustrator 23.1.0, SVG Export Plug-In . SVG Version: 6.00 Build 0)  -->
<svg version="1.1" id="Layer_1" xmlns="http://www.w3.org/2000/svg" xmlns:xlink="http://www.w3.org/1999/xlink" x="0px" y="0px"
	 width="16px" height="16px" viewBox="0 0 16 16" style="enable-background:new 0 0 16 16;" xml:space="preserve">
<path d="M10.1,1.1C9.5,1.3,9.1,1.7,8.7,2.2c0,0.1-0.1,0.1-0.1,0.2C8.4,2.3,8.2,2.2,8,2.2c-0.1,0-0.3,0-0.4,0c0,0,0,0,0,0
	c-1,0.1-1.8,0.9-2,1.9c0,0,0,0,0,0C5.4,4.8,5.5,5.4,5.8,6l0.4,0.6h-2c-0.6-1.3-0.6-2.7,0.1-4C5.1,1.3,6.5,0.5,8,0.5
	C8.8,0.5,9.5,0.7,10.1,1.1z"/>
<polygon points="11.6,7 11.6,7 9.2,11 8.2,9.3 9.6,7 9.6,7 "/>
<path d="M2.1,10c-0.2,0.4-0.3,0.8-0.3,1.2c0,0.4,0.1,0.9,0.3,1.2c0.5,0.8,1.3,1.2,2.2,1.2c0.9,0,1.7-0.5,2.2-1.2l0.4-0.6
	c0,0,1,1.7,1,1.7c-0.8,1.2-2.1,1.9-3.5,1.9c-1.5,0-2.9-0.8-3.7-2.1c-0.8-1.3-0.8-2.9,0-4.2c0.7-1.2,2-2,3.4-2.1h0C4,7,4.1,7,4.2,7
	h4.9L8,8.8H4.2C3.3,8.8,2.5,9.2,2.1,10z"/>
<path d="M15.4,13.4c-0.8,1.3-2.1,2.1-3.7,2.1c-1.4,0-2.7-0.7-3.5-1.9L5.7,9.2h2l1.9,3.3c0.4,0.8,1.3,1.2,2.2,1.2
	c0.9,0,1.7-0.5,2.2-1.2c0.4-0.8,0.4-1.7,0-2.5c-0.5-0.8-1.3-1.2-2.2-1.2h-0.7L12,7c0,0,0,0,0,0c1.4,0.1,2.7,0.9,3.4,2.1
	C16.2,10.5,16.2,12.1,15.4,13.4z"/>
<path d="M14.6,5.1c0,0.6-0.5,1.1-1.1,1.2c0,0-0.1,0-0.1,0H8.1c-0.9,0-1.6-0.7-1.6-1.6S7.2,3,8.1,3c0.1,0,0.3,0,0.4,0
	c0.1,0,0.3,0.1,0.4,0.2C8.9,3.1,9,2.9,9.1,2.8c0,0,0,0,0,0C9.4,2.3,9.9,2,10.4,1.9c0,0,0,0,0,0c0.1,0,0.3,0,0.5,0
	c1.2,0,2.1,0.9,2.2,2.1c0.1,0,0.2,0,0.2,0c0,0,0,0,0,0C14.1,3.9,14.6,4.4,14.6,5.1z"/>
</svg>
