<?xml version="1.0" encoding="utf-8"?>
<!-- Generator: Adobe Illustrator 23.1.0, SVG Export Plug-In . SVG Version: 6.00 Build 0)  -->
<svg version="1.1" id="Layer_1" xmlns="http://www.w3.org/2000/svg" xmlns:xlink="http://www.w3.org/1999/xlink" x="0px" y="0px"
	 width="24px" height="24px" viewBox="0 0 24 24" style="enable-background:new 0 0 24 24;" xml:space="preserve">
<g>
	<path d="M15.2,1.6c-0.8,0.3-1.6,0.9-2.1,1.6c-0.1,0.1-0.1,0.2-0.2,0.2c-0.3-0.1-0.6-0.1-0.9-0.1c-0.2,0-0.4,0-0.6,0.1c0,0,0,0,0,0
		c-1.5,0.2-2.7,1.4-3,2.8c0,0,0,0,0,0C8.1,7.2,8.3,8.1,8.8,9l0.5,0.9h-3C5.4,8,5.4,5.8,6.5,3.9C7.7,2,9.7,0.8,12,0.8
		C13.1,0.8,14.2,1.1,15.2,1.6z"/>
	<polygon points="17.3,10.6 17.3,10.6 13.9,16.5 12.4,13.9 14.3,10.6 14.3,10.6 	"/>
	<path d="M3.1,15c-0.3,0.6-0.5,1.2-0.5,1.9c0,0.6,0.2,1.3,0.5,1.9c0.7,1.2,1.9,1.9,3.2,1.9c1.4,0,2.6-0.7,3.2-1.9l0.5-0.9
		c0,0,1.5,2.6,1.5,2.6c-1.2,1.8-3.1,2.8-5.3,2.8c-2.3,0-4.3-1.2-5.5-3.2c-1.1-2-1.1-4.4,0-6.3c1.1-1.9,2.9-3,5.1-3.2h0
		c0.1,0,0.2,0,0.4,0h7.3l-1.5,2.6H6.3C5,13.2,3.8,13.9,3.1,15z"/>
	<path d="M23.1,20.1c-1.1,2-3.2,3.2-5.5,3.2c-2.2,0-4.1-1-5.3-2.8l-3.8-6.6h3l2.9,5c0.7,1.2,1.9,1.9,3.2,1.9c1.4,0,2.6-0.7,3.2-1.9
		c0.7-1.2,0.7-2.6,0-3.7c-0.7-1.2-1.9-1.9-3.2-1.9h-1.1l1.5-2.6c0,0,0,0,0,0c2.1,0.1,4,1.3,5.1,3.2C24.3,15.7,24.3,18.1,23.1,20.1z"
		/>
	<path d="M21.9,7.6c0,0.9-0.7,1.7-1.7,1.8c0,0-0.1,0-0.1,0h-8c-1.3,0-2.4-1.1-2.4-2.4s1.1-2.4,2.4-2.4c0.2,0,0.4,0,0.6,0.1
		c0.2,0,0.4,0.1,0.6,0.2c0.1-0.2,0.2-0.4,0.3-0.6c0,0,0,0,0-0.1c0.5-0.6,1.2-1.1,2-1.3c0,0,0,0,0.1,0c0.2,0,0.4-0.1,0.7-0.1
		c1.8,0,3.2,1.4,3.3,3.1c0.1,0,0.2-0.1,0.4-0.1c0,0,0,0,0.1,0C21.1,5.9,21.9,6.7,21.9,7.6z"/>
</g>
</svg>
