<?xml version="1.0" encoding="utf-8"?>
<!-- Generator: Adobe Illustrator 23.1.0, SVG Export Plug-In . SVG Version: 6.00 Build 0)  -->
<svg version="1.1" id="Layer_1" xmlns="http://www.w3.org/2000/svg" xmlns:xlink="http://www.w3.org/1999/xlink" x="0px" y="0px"
	 width="16px" height="16px" viewBox="0 0 16 16" style="enable-background:new 0 0 16 16;" xml:space="preserve">
<circle cx="8" cy="8" r="2.221"/>
<polygon points="10,14.243 10,10 14.243,10 12.828,11.414 16,14.586 14.586,16 11.414,12.828 "/>
<polygon points="6,1.757 6,6 1.757,6 3.172,4.586 0,1.414 1.414,0 4.586,3.172 "/>
<polygon points="14.243,6 10,6 10,1.757 11.414,3.172 14.586,0 16,1.414 12.828,4.586 "/>
<polygon points="1.757,10 6,10 6,14.243 4.586,12.828 1.414,16 0,14.586 3.172,11.414 "/>
</svg>
