<?xml version="1.0" encoding="utf-8"?>
<!-- Generator: Adobe Illustrator 23.0.2, SVG Export Plug-In . SVG Version: 6.00 Build 0)  -->
<svg version="1.1" id="Layer_1" xmlns="http://www.w3.org/2000/svg" xmlns:xlink="http://www.w3.org/1999/xlink" x="0px" y="0px"
	 width="16px" height="16px" viewBox="0 0 16 16" style="enable-background:new 0 0 16 16;" xml:space="preserve">
<g id="Layer_1_1_">
</g>
<g id="Layer_1_2_">
</g>
<g>
	<polygon points="16,12 16,16 12,16 12,15 4,15 4,16 0,16 0,12 4,12 4,13 12,13 12,12 	"/>
</g>
<g>
	<polygon points="16,6 16,10 12,10 12,7.4 8.6,4 7.4,4 4,7.4 4,10 0,10 0,6 2.6,6 6,2.6 6,0 10,0 10,2.6 13.4,6 	"/>
</g>
</svg>
