<?xml version="1.0" encoding="utf-8"?>
<!-- Generator: Adobe Illustrator 24.2.1, SVG Export Plug-In . SVG Version: 6.00 Build 0)  -->
<svg version="1.1" id="Layer_1" xmlns="http://www.w3.org/2000/svg" xmlns:xlink="http://www.w3.org/1999/xlink" x="0px" y="0px"
	 viewBox="0 0 16 16" style="enable-background:new 0 0 16 16;" xml:space="preserve">
<polygon points="10,8 0,16 0,0 "/>
<path d="M14,0.3v3.3l-1.5,0.9L11,3.6V0.3C9.8,0.9,9,2.1,9,3.5c0,1.2,0.6,2.2,1.5,2.9V14c0,0.2,0,0.3,0.1,0.5c0.2,0.9,1,1.5,1.9,1.5
	s1.7-0.6,1.9-1.5c0-0.2,0.1-0.3,0.1-0.5V6.4C15.4,5.7,16,4.7,16,3.5C16,2.1,15.2,0.9,14,0.3z M12.5,14.8c-0.2,0-0.4-0.1-0.6-0.3
	c-0.1-0.1-0.2-0.3-0.2-0.5c0-0.4,0.3-0.8,0.8-0.8s0.8,0.3,0.8,0.8c0,0.2-0.1,0.4-0.2,0.5C12.9,14.6,12.7,14.8,12.5,14.8z"/>
</svg>
