<?xml version="1.0" encoding="utf-8"?>
<!-- Generator: Adobe Illustrator 24.3.0, SVG Export Plug-In . SVG Version: 6.00 Build 0)  -->
<svg version="1.1" id="Layer_1" xmlns="http://www.w3.org/2000/svg" xmlns:xlink="http://www.w3.org/1999/xlink" x="0px" y="0px"
	 width="24px" height="24px" viewBox="0 0 24 24" style="enable-background:new 0 0 24 24;" xml:space="preserve">
<g>
	<path d="M21,0H6C5.2,0,4.4,0.3,3.9,0.9S3,2.2,3,3v18H0c0,1.7,1.3,3,3,3h15c0.8,0,1.5-0.3,2.1-0.9c0.5-0.5,0.9-1.3,0.9-2.1V3h3
		C24,1.3,22.6,0,21,0z M20,3v18c0,2-1.5,2.5-1.5,2.5S17,23,17,21h-1.5C10.4,21,4,21,4,21V3c0-1.1,0.9-2,2-2h16C21.8,1,20,1,20,3z"/>
</g>
<polygon points="5,14 5,17 8,12 10,15 12.867,10.481 15.345,14.601 19,8.158 18.954,5.092 15.357,11.619 12.867,7.213 10,12 8,9 "/>
</svg>
