<?xml version="1.0" encoding="utf-8"?>
<!-- Generator: Adobe Illustrator 23.0.6, SVG Export Plug-In . SVG Version: 6.00 Build 0)  -->
<svg version="1.1" id="Layer_1" xmlns="http://www.w3.org/2000/svg" xmlns:xlink="http://www.w3.org/1999/xlink" x="0px" y="0px"
	 width="16px" height="16px" viewBox="0 0 16 16" style="enable-background:new 0 0 16 16;" xml:space="preserve">
<path d="M8,5H0v3h3.11C3.28,7.64,3.5,7.31,3.76,7H3V6h1v0.73C5,5.66,6.42,5,8,5z M2,7H1V6h1V7z"/>
<path d="M8,5c2.14,0,3.99,1.22,4.89,3H16V5H8z M15,7h-1V6h1V7z"/>
<polygon points="16,4 0,4 2,0 14,0 "/>
<path d="M13.29,9c0.14,0.48,0.21,0.98,0.21,1.5s-0.07,1.02-0.21,1.5H16V9H13.29z M15,11h-1v-1h1V11z"/>
<path d="M2.71,9H0v3h2.71c-0.14-0.48-0.21-0.98-0.21-1.5S2.57,9.48,2.71,9z M2,11H1v-1h1V11z"/>
<path d="M12.89,13c-0.9,1.78-2.75,3-4.89,3h8v-3H12.89z M15,15h-1v-1h1V15z"/>
<path d="M4,14.27V15H3v-1h0.76c-0.26-0.31-0.48-0.64-0.65-1H0v3h8C6.42,16,5,15.34,4,14.27z M2,15H1v-1h1V15z"/>
<polygon points="11.85,12.92 10.43,14.35 8,11.95 5.57,14.35 4.15,12.92 6.64,10.47 4.21,8.08 5.62,6.65 8,9.1 10.43,6.65 
	11.85,8.08 9.42,10.47 "/>
</svg>
