<?xml version="1.0" encoding="utf-8"?>
<!-- Generator: Adobe Illustrator 23.0.3, SVG Export Plug-In . SVG Version: 6.00 Build 0)  -->
<svg version="1.1" id="Layer_1" xmlns="http://www.w3.org/2000/svg" xmlns:xlink="http://www.w3.org/1999/xlink" x="0px" y="0px"
	 width="16px" height="16px" viewBox="0 0 16 16" style="enable-background:new 0 0 16 16;" xml:space="preserve">
<g>
	<path d="M16,7l-0.37,2h-1.09c-0.41,0-0.68,0.22-0.74,0.64l-0.61,3.53C12.88,14.84,11.53,16,9.87,16H7.78l0.357-1.998h2.14
		c0.41,0,0.67-0.22,0.74-0.63L11.64,9.81C11.7,9.5,11.8,9.23,11.93,9h-1.11c-0.4,1.17-1.51,2-2.82,2s-2.42-0.83-2.82-2H3.73
		c0.05,0.23,0.06,0.5,0,0.81l-0.624,3.563c-0.07,0.41,0.1,0.63,0.52,0.63h2.13L5.41,16h-2.1C1.55,16,0.72,14.84,1,13.17l0.61-3.53
		C1.68,9.22,1.5,9,1.09,9H0l0.37-2h1.09C1.87,7,2.14,6.78,2.2,6.37l0.61-3.54C3.12,1.16,4.47,0,6.13,0h2.09L7.861,1.998h-2.14
		c-0.41,0-0.67,0.22-0.74,0.63L4.36,6.19C4.3,6.5,4.2,6.77,4.07,7h1.11C5.58,5.83,6.69,5,8,5s2.42,0.83,2.82,2h1.45
		c-0.05-0.23-0.06-0.5,0-0.81l0.624-3.562c0.07-0.41-0.1-0.63-0.52-0.63h-2.13L10.59,0h2.1c1.76,0,2.59,1.16,2.31,2.83l-0.61,3.54
		C14.32,6.78,14.5,7,14.91,7H16z"/>
</g>
</svg>
