<?xml version="1.0" encoding="utf-8"?>
<!-- Generator: Adobe Illustrator 24.1.2, SVG Export Plug-In . SVG Version: 6.00 Build 0)  -->
<svg version="1.1" xmlns="http://www.w3.org/2000/svg" xmlns:xlink="http://www.w3.org/1999/xlink" x="0px" y="0px"
	 viewBox="0 0 16 16" style="enable-background:new 0 0 16 16;" xml:space="preserve">
<g id="Layer_1">
	<polygon points="10,9 12,9 12,1 14,1 14,9 16,9 13,12 	"/>
	<path d="M6,13v-1h3c0-4.8,0-6-4.5-6S0,7.2,0,12h3v1H0v1h3v1h3v-1h10v-1H6z M4,14v-1h1v1H4z"/>
	<path id="XMLID_9_" d="M4.5,6C3.167,6,2,4.917,2,3.5S3.167,1,4.5,1S7,2.167,7,3.5S5.833,6,4.5,6z"/>
</g>
<g id="Layer_2">
</g>
</svg>
